<svg width="528" height="583" viewBox="0 0 528 583" fill="none" xmlns="http://www.w3.org/2000/svg">
<g id="ymg-red">
<g id="Group">
<g id="Layer 2">
<g id="graphics">
<path id="Vector" d="M528 0H0V583H528V0Z" fill="#CE1625"/>
<g id="&#60;Group&#62;">
<path id="Vector_2" d="M264.39 477.16L478.79 262.81L322.03 106L264.39 163.65L206.75 106L50 262.81L264.39 477.16ZM121.4 262.81L206.75 177.46L228.69 199.4L165.28 262.81L264.39 361.93L363.51 262.81L300.1 199.4L322.03 177.46L407.38 262.81L264.38 405.81L121.4 262.81ZM292.1 262.81L264.39 290.52L236.68 262.81L264.39 235.1L292.1 262.81Z" fill="white"/>
<path id="Vector_3" style="mix-blend-mode:multiply" opacity="0.42" d="M292.1 262.76L264.39 235.05L300.1 199.35L363.51 262.76H292.1Z" fill="url(#paint0_linear_1_15)"/>
<path id="Vector_4" style="mix-blend-mode:multiply" opacity="0.23" d="M206.75 106.01L264.39 163.65L228.69 199.35L206.75 177.42V106.01Z" fill="url(#paint1_linear_1_15)"/>
</g>
</g>
</g>
</g>
</g>
<defs>
<linearGradient id="paint0_linear_1_15" x1="283.43" y1="218.37" x2="304.96" y2="239.91" gradientUnits="userSpaceOnUse">
<stop stop-opacity="0.5"/>
<stop offset="0.09" stop-color="#0D0D0D" stop-opacity="0.53"/>
<stop offset="0.26" stop-color="#303030" stop-opacity="0.59"/>
<stop offset="0.48" stop-color="#686868" stop-opacity="0.7"/>
<stop offset="0.76" stop-color="#B4B4B4" stop-opacity="0.85"/>
<stop offset="1" stop-color="white"/>
</linearGradient>
<linearGradient id="paint1_linear_1_15" x1="247.03" y1="181.98" x2="225.57" y2="160.53" gradientUnits="userSpaceOnUse">
<stop stop-color="#231F20" stop-opacity="0.5"/>
<stop offset="1" stop-color="white"/>
</linearGradient>
</defs>
</svg>
